<svg width="40" height="40" viewBox="0 0 40 40" fill="none" xmlns="http://www.w3.org/2000/svg">
<path fill-rule="evenodd" clip-rule="evenodd" d="M19.9569 35.9912C13.8298 35.9912 8.50029 32.5341 5.80049 27.4692C18.2032 28.5215 28.5233 18.235 27.4711 5.80027C32.534 8.50007 35.9914 13.8299 35.9914 19.957C35.9914 28.798 28.7979 35.9912 19.9569 35.9912ZM27.0293 1.21707C24.8058 0.375561 23.0627 2.85142 23.425 5.20109C25.0252 15.5776 15.6146 25.063 5.19904 23.4326C2.85024 23.0649 0.375342 24.8055 1.21671 27.029C4.06087 34.5455 11.3149 40 19.9569 40C31.0267 40 40 31.0268 40 19.957C40 11.311 34.5428 4.06057 27.0293 1.21707Z" fill="#1A0045"/>
</svg>
